<?xml version="1.0" standalone="no"?>
<!DOCTYPE svg PUBLIC "-//W3C//DTD SVG 20010904//EN"
 "http://www.w3.org/TR/2001/REC-SVG-20010904/DTD/svg10.dtd">
<svg version="1.0" xmlns="http://www.w3.org/2000/svg"
 width="48.000000pt" height="48.000000pt" viewBox="0 0 48.000000 48.000000"
 preserveAspectRatio="xMidYMid meet">

<g transform="translate(0.000000,48.000000) scale(0.100000,-0.100000)"
fill="#000000" stroke="none">
<path d="M67 413 c-4 -3 -7 -21 -7 -40 l0 -33 116 0 115 0 -19 -28 c-24 -34
-13 -62 23 -62 28 0 34 -24 10 -34 -9 -3 -15 -18 -15 -40 0 -35 -1 -35 -26
-24 -20 9 -30 9 -45 0 -26 -16 -27 -16 -31 15 -3 26 -6 24 -49 -37 l-47 -65
151 -3 c83 -1 157 0 164 3 11 3 13 42 11 177 -3 169 -4 173 -25 176 -15 2 -22
-3 -25 -18 -4 -27 -22 -27 -26 0 -3 19 -10 20 -103 20 -99 0 -99 0 -99 -25 0
-16 -6 -25 -15 -25 -9 0 -15 9 -15 25 0 18 -5 25 -18 25 -10 0 -22 -3 -25 -7z"/>
</g>
</svg>
